<?xml version="1.0" encoding="UTF-8"?><svg id="ARTWORK" xmlns="http://www.w3.org/2000/svg" viewBox="0 0 666 540"><defs><style>.cls-1{fill:#003cff;}.cls-2{fill:#0a1e3c;}</style></defs><g><path class="cls-2" d="M18.6,437.97h51.01v22.12H23.25v19.6h46.36v19.59H23.25v38.74H0v-81.45c0-10.71,7.89-18.6,18.6-18.6Z"/><rect class="cls-2" x="83.86" y="479.69" width="46.36" height="19.59"/><path class="cls-2" d="M181.14,455.31c-10.15,0-14.52,5.78-14.52,11.41,0,6.62,6.76,8.88,19.87,12.96,2.96,.99,5.64,1.55,8.31,2.54,16.35,5.64,27.06,12.4,27.06,29.17,0,18.04-17.9,28.61-39.03,28.61s-41.71-12.26-41.71-34.1h22.83c0,7.89,8.88,14.37,18.88,14.37s16.49-3.66,16.49-9.02c0-6.2-7.19-8.03-15.22-10.85-4.65-1.41-9.44-2.82-13.39-4.37-18.04-7.05-26.63-15.78-26.63-29.31,0-18.18,17.76-30.72,38.05-30.72,21.42,0,34.67,13.81,37.2,30.72h-22.83c-1.97-7.05-8.03-11.41-15.36-11.41Z"/><path class="cls-2" d="M274,540c-22.26,0-40.87-17.9-40.87-40.73s18.6-40.73,40.87-40.73c19.59,0,40.16,17.76,40.16,42.84v4.09h-59.89c2.54,10.29,10.29,16.21,19.73,16.21,8.03,0,13.81-3.24,16.49-7.33h21.42c-4.51,14.8-20.71,25.65-37.91,25.65Zm18.18-48.48c-2.54-9.16-9.86-14.52-18.18-14.52s-16.63,4.79-19.59,14.52h37.77Z"/><path class="cls-2" d="M366.59,540c-23.39,0-40.73-18.18-40.73-41.29s17.33-40.16,40.73-40.16c21.84,0,36.78,16.06,39.74,33.96h-21c-2.96-8.88-10.01-14.37-18.74-14.37-11.7,0-19.87,8.17-19.87,20.58s8.17,21.56,19.87,21.56c9.44,0,15.92-4.23,18.74-12.54h20.86c-2.82,18.6-17.61,32.27-39.6,32.27Z"/><path class="cls-2" d="M455.55,540c-23.53,0-36.78-12.82-36.78-35.93v-43.97h21.56v43.97c0,10.43,5.5,16.21,15.22,16.21s15.36-5.78,15.36-16.21v-43.97h21.56v43.97c0,23.11-13.25,35.93-36.92,35.93Z"/><path class="cls-2" d="M524.55,460.1h35.23v19.6h-31.99v58.33h-21.14v-59.89c0-10.57,7.47-18.04,17.9-18.04Z"/><path class="cls-2" d="M607.84,540c-22.27,0-40.87-17.9-40.87-40.73s18.6-40.73,40.87-40.73c19.59,0,40.16,17.76,40.16,42.84v4.09h-59.89c2.54,10.29,10.29,16.21,19.73,16.21,8.03,0,13.81-3.24,16.49-7.33h21.42c-4.51,14.8-20.72,25.65-37.91,25.65Zm18.18-48.48c-2.54-9.16-9.86-14.52-18.18-14.52s-16.63,4.79-19.59,14.52h37.77Z"/><g><path class="cls-2" d="M655.09,535.44h-1.52v-9.25h3.51c1.12,0,1.96,.21,2.52,.63,.57,.42,.85,1.1,.85,2.03,0,.83-.23,1.44-.69,1.83-.46,.39-1.04,.62-1.72,.69l2.59,4.07h-1.72l-2.39-3.95h-1.43v3.95Zm1.7-5.25c.28,0,.55-.01,.82-.03,.26-.02,.49-.09,.68-.19,.19-.1,.35-.25,.47-.44,.12-.19,.18-.45,.18-.79,0-.28-.06-.51-.19-.67-.13-.16-.29-.29-.48-.38-.19-.09-.41-.15-.65-.17-.24-.02-.47-.03-.69-.03h-1.83v2.7h1.7Z"/><path class="cls-2" d="M656.81,523.17c4.21,0,7.64,3.43,7.64,7.64s-3.43,7.64-7.64,7.64-7.64-3.43-7.64-7.64,3.43-7.64,7.64-7.64m0-1.55c-5.07,0-9.19,4.11-9.19,9.19s4.11,9.19,9.19,9.19,9.19-4.11,9.19-9.19-4.11-9.19-9.19-9.19h0Z"/></g></g><g><path class="cls-1" d="M219.33,377.37h125.79V125.79h125.79V0h-125.79c-69.47,0-125.79,56.32-125.79,125.79h0v251.58Z"/><path class="cls-1" d="M360.84,251.58h110.07v-110.07h0c-60.79,0-110.07,49.28-110.07,110.07Z"/></g></svg>